Fly_normalized_Motion_pl15
version=1
nRows=10
nColumns=43
inDegrees=yes
endheader
time		pelvis_tilt		pelvis_list		pelvis_rotation		pelvis_tx		pelvis_ty		pelvis_tz		hip_flexion_r		hip_adduction_r		hip_rotation_r		knee_angle_r		ankle_angle_r		subtalar_angle_r		mtp_angle_r		hip_flexion_l		hip_adduction_l		hip_rotation_l		knee_angle_l		ankle_angle_l		subtalar_angle_l		mtp_angle_l		lumbar_extension		lumbar_bending		lumbar_rotation		neck_flexion		neck_lateral_bending		neck_rotation		arm_flex_r		arm_add_r		arm_rot_r		elbow_flex_r		pro_sup_r		wrist_flex_r		wrist_dev_r		hand_finger_flex_r		arm_flex_l		arm_add_l		arm_rot_l		elbow_flex_l		pro_sup_l		wrist_flex_l		wrist_dev_l		hand_finger_flex_l		
0.816667		0.473825		-6.842007		88.247438		0.031588		1.560730		0.942045		42.073561		1.320859		-3.787952		-34.314971		-19.693386		0.278535		13.846278		38.495769		-8.896105		-8.551110		-29.408987		-20.716831		8.340208		25.248862		-36.193116		-1.967427		-1.910907		-5.721962		-3.002682		4.596584		-10.616989		-35.770386		0.794211		75.633762		107.376324		-2.434512		3.893743		30.972141		-15.073769		-38.711379		-7.508387		77.668299		106.401155		-3.791262		-3.202677		24.919946		
0.821010		0.395644		-6.660083		88.182650		0.031218		1.547873		0.932599		41.585155		1.199390		-3.867933		-33.534888		-19.928801		0.532503		13.781345		38.073062		-8.852812		-8.684351		-28.976747		-20.888902		8.610486		25.217039		-35.767558		-2.059342		-1.912623		-6.869489		-3.041020		4.610933		-13.203065		-36.031183		-0.324707		75.366620		107.090756		-2.507514		3.685911		30.905721		-17.618959		-38.573431		-8.081037		77.554590		106.597242		-3.949705		-3.569145		24.879102		
0.825354		0.301588		-6.482245		88.160808		0.030743		1.534778		0.923041		41.122174		1.037116		-3.897757		-32.840983		-20.077608		0.861530		13.696706		37.659546		-8.782677		-8.864225		-28.570768		-21.062851		9.002347		25.173745		-35.312342		-2.143860		-1.906347		-8.094996		-3.073682		4.583199		-15.897008		-36.180614		-1.625929		75.090883		106.784944		-2.582948		3.437801		30.730216		-20.130067		-38.368982		-8.657869		77.434161		106.966906		-4.155110		-4.033603		24.784860		
0.829697		0.134965		-6.261667		88.130645		0.030300		1.521465		0.913125		40.707863		0.802060		-3.867877		-32.407983		-20.057327		1.430992		13.488863		37.208113		-8.690613		-9.179591		-28.256679		-21.225764		9.701509		25.055864		-34.831572		-2.300720		-1.824752		-9.609168		-3.086245		4.400565		-18.893133		-35.942159		-3.560171		74.830379		106.523524		-2.510370		2.981949		30.068369		-22.517006		-37.977967		-9.338785		77.185571		108.063385		-4.420364		-4.907669		24.505653		
0.834040		0.028834		-6.036145		88.197746		0.029603		1.508088		0.903301		40.157531		0.578008		-3.934380		-31.731232		-20.151919		1.596879		13.376410		36.756518		-8.541414		-9.276465		-27.879870		-21.504477		9.950669		25.010260		-34.377856		-2.333610		-1.933101		-11.010918		-3.140289		4.421028		-21.555489		-35.941798		-4.892685		74.565240		106.407125		-2.815697		2.925348		29.800613		-25.096151		-37.624002		-10.026554		77.121511		108.145083		-4.623144		-5.145161		24.391871		
0.838384		-0.143534		-5.843391		88.238672		0.028917		1.494513		0.893440		39.618109		0.275933		-4.021565		-31.045722		-20.006286		2.109700		13.145170		36.289538		-8.364509		-9.499383		-27.436753		-21.787651		10.523100		24.887134		-33.892241		-2.449194		-1.911966		-12.319349		-3.125717		4.281214		-24.428637		-35.761542		-6.565816		74.367368		106.733142		-2.986071		2.729790		29.011143		-27.467859		-37.318117		-10.552294		76.995567		108.869497		-4.714558		-5.674826		24.057615		
0.842727		-0.226413		-5.663100		88.251293		0.028236		1.480761		0.883741		39.032369		0.100499		-4.091104		-30.205032		-20.204919		2.181292		13.053347		35.871925		-8.249804		-9.561281		-27.049329		-21.991118		10.640288		24.856551		-33.407178		-2.494647		-1.946055		-13.567012		-3.211698		4.352054		-27.015071		-35.929268		-7.621719		74.098777		106.714085		-3.193285		2.717682		28.875152		-30.046379		-37.042248		-11.095662		77.090407		108.817613		-4.801346		-5.861999		24.013055		
0.847071		-0.291609		-5.411585		88.275049		0.027828		1.466892		0.873645		38.471594		-0.079141		-4.255029		-29.656072		-20.388117		2.443141		12.963125		35.386623		-8.217463		-9.763694		-26.740454		-22.334375		11.065438		24.804994		-32.920660		-2.543668		-1.963508		-15.212769		-3.213762		4.398436		-29.753906		-35.591843		-9.240164		73.932766		106.955008		-3.566396		2.642497		28.522950		-32.626584		-36.460506		-11.959017		77.053196		108.881563		-4.966990		-6.175168		23.878219		
0.851414		-0.359750		-5.243472		88.216822		0.027465		1.452698		0.863689		37.957518		-0.221708		-4.400821		-28.990081		-20.540182		2.875164		12.827766		34.938540		-8.235482		-10.083450		-26.351292		-22.484617		11.812670		24.677680		-32.376937		-2.615752		-1.768051		-16.589589		-3.258154		4.264884		-32.652094		-35.202824		-11.094751		73.917426		108.266656		-3.314731		2.486744		27.689590		-35.010483		-36.047651		-12.580945		77.033095		109.448945		-4.727006		-6.729010		23.664012		
0.855758		-0.390919		-5.046293		88.209374		0.027047		1.438382		0.853782		37.431520		-0.339569		-4.614084		-28.352426		-20.945365		2.945830		12.740384		34.501140		-8.212105		-10.203263		-25.992867		-22.703703		12.005851		24.644545		-31.877584		-2.638356		-1.780998		-17.969810		-3.301060		4.316400		-35.278709		-35.066700		-12.374596		73.852023		108.418266		-3.404626		2.461462		27.537468		-37.651914		-35.514337		-13.346657		77.171308		109.316870		-4.834189		-6.943280		23.631828		
